{
	"asset":{
		"generator":"Khronos glTF Blender I/O v4.0.43",
		"version":"2.0"
	},
	"extensionsUsed":[
		"EXT_texture_webp"
	],
	"extensionsRequired":[
		"EXT_texture_webp"
	],
	"scene":0,
	"scenes":[
		{
			"name":"Scene",
			"nodes":[
				0
			]
		}
	],
	"nodes":[
		{
			"mesh":0,
			"name":"mastered.002"
		}
	],
	"materials":[
		{
			"doubleSided":true,
			"emissiveFactor":[
				1,
				1,
				1
			],
			"emissiveTexture":{
				"index":0
			},
			"name":"Material.004",
			"pbrMetallicRoughness":{
				"baseColorTexture":{
					"index":1
				},
				"metallicFactor":0
			}
		}
	],
	"meshes":[
		{
			"name":"Plane.003",
			"primitives":[
				{
					"attributes":{
						"POSITION":0,
						"NORMAL":1,
						"TEXCOORD_0":2
					},
					"indices":3,
					"material":0
				}
			]
		}
	],
	"textures":[
		{
			"extensions":{
				"EXT_texture_webp":{
					"source":0
				}
			},
			"sampler":0
		},
		{
			"extensions":{
				"EXT_texture_webp":{
					"source":0
				}
			},
			"sampler":0
		}
	],
	"images":[
		{
			"mimeType":"image/webp",
			"name":"coloh",
			"uri":"coloh.webp"
		}
	],
	"accessors":[
		{
			"bufferView":0,
			"componentType":5126,
			"count":388620,
			"max":[
				1.0403403043746948,
				1.282463550567627,
				1.1664786338806152
			],
			"min":[
				-1.0888655185699463,
				-0.45934727787971497,
				-0.8300849795341492
			],
			"type":"VEC3"
		},
		{
			"bufferView":1,
			"componentType":5126,
			"count":388620,
			"type":"VEC3"
		},
		{
			"bufferView":2,
			"componentType":5126,
			"count":388620,
			"type":"VEC2"
		},
		{
			"bufferView":3,
			"componentType":5125,
			"count":1142433,
			"type":"SCALAR"
		}
	],
	"bufferViews":[
		{
			"buffer":0,
			"byteLength":4663440,
			"byteOffset":0,
			"target":34962
		},
		{
			"buffer":0,
			"byteLength":4663440,
			"byteOffset":4663440,
			"target":34962
		},
		{
			"buffer":0,
			"byteLength":3108960,
			"byteOffset":9326880,
			"target":34962
		},
		{
			"buffer":0,
			"byteLength":4569732,
			"byteOffset":12435840,
			"target":34963
		}
	],
	"samplers":[
		{
			"magFilter":9729,
			"minFilter":9987
		}
	],
	"buffers":[
		{
			"byteLength":17005572,
			"uri":"mhst.bin"
		}
	]
}
