{
	"asset":{
		"generator":"Khronos glTF Blender I/O v4.0.43",
		"version":"2.0"
	},
	"extensionsUsed":[
		"KHR_materials_unlit",
		"EXT_texture_webp"
	],
	"extensionsRequired":[
		"EXT_texture_webp"
	],
	"scene":0,
	"scenes":[
		{
			"name":"Scene",
			"nodes":[
				0
			]
		}
	],
	"nodes":[
		{
			"mesh":0,
			"name":"mastered"
		}
	],
	"materials":[
		{
			"doubleSided":true,
			"extensions":{
				"KHR_materials_unlit":{}
			},
			"name":"Material.001",
			"pbrMetallicRoughness":{
				"baseColorTexture":{
					"index":0
				},
				"metallicFactor":0,
				"roughnessFactor":0.9
			}
		}
	],
	"meshes":[
		{
			"name":"Plane.008",
			"primitives":[
				{
					"attributes":{
						"COLOR_0":0,
						"POSITION":1,
						"NORMAL":2,
						"TEXCOORD_0":3
					},
					"indices":4,
					"material":0
				}
			]
		}
	],
	"textures":[
		{
			"extensions":{
				"EXT_texture_webp":{
					"source":0
				}
			},
			"sampler":0
		}
	],
	"images":[
		{
			"mimeType":"image/webp",
			"name":"coloh",
			"uri":"coloh.webp"
		}
	],
	"accessors":[
		{
			"bufferView":0,
			"componentType":5123,
			"count":386543,
			"normalized":true,
			"type":"VEC4"
		},
		{
			"bufferView":1,
			"componentType":5126,
			"count":386543,
			"max":[
				10.250232696533203,
				13.661121368408203,
				11.49304485321045
			],
			"min":[
				-10.728340148925781,
				-3.5005388259887695,
				-8.178635597229004
			],
			"type":"VEC3"
		},
		{
			"bufferView":2,
			"componentType":5126,
			"count":386543,
			"type":"VEC3"
		},
		{
			"bufferView":3,
			"componentType":5126,
			"count":386543,
			"type":"VEC2"
		},
		{
			"bufferView":4,
			"componentType":5125,
			"count":1142433,
			"type":"SCALAR"
		}
	],
	"bufferViews":[
		{
			"buffer":0,
			"byteLength":3092344,
			"byteOffset":0,
			"target":34962
		},
		{
			"buffer":0,
			"byteLength":4638516,
			"byteOffset":3092344,
			"target":34962
		},
		{
			"buffer":0,
			"byteLength":4638516,
			"byteOffset":7730860,
			"target":34962
		},
		{
			"buffer":0,
			"byteLength":3092344,
			"byteOffset":12369376,
			"target":34962
		},
		{
			"buffer":0,
			"byteLength":4569732,
			"byteOffset":15461720,
			"target":34963
		}
	],
	"samplers":[
		{
			"magFilter":9729,
			"minFilter":9987
		}
	],
	"buffers":[
		{
			"byteLength":20031452,
			"uri":"nog.bin"
		}
	]
}
